<svg width="128" height="128" viewBox="0 0 128 128" xmlns="http://www.w3.org/2000/svg" role="img" aria-label="Parzialmente nuvoloso">
  <circle cx="46" cy="40" r="20" fill="#FFD05B" />
  <g stroke="#FFD05B" stroke-width="10" stroke-linecap="round">
    <line x1="46" y1="6" x2="46" y2="18" />
    <line x1="24" y1="24" x2="32" y2="32" />
    <line x1="66" y1="24" x2="74" y2="32" />
  </g>
  <path d="M28 72c-6-18 4-36 22-40s36 4 42 22c4 12 0 24-10 32H32c-4-4-6-10-4-14Z" fill="#CBD5E1" />
  <path d="M56 54c18-6 36 4 40 22 2 10-2 20-10 26H46c-10-8-14-22-10-34 4-16 18-22 30-14Z" fill="#E2E8F0" />
</svg>
